<svg xmlns="http://www.w3.org/2000/svg" xmlns:xlink="http://www.w3.org/1999/xlink" width="1920" zoomAndPan="magnify" viewBox="0 0 1440 374.999991" height="500" preserveAspectRatio="xMidYMid meet" version="1.0"><defs><g/><clipPath id="62adf792f3"><path d="M 13.175781 50.914062 L 441.539062 50.914062 L 441.539062 324.71875 L 13.175781 324.71875 Z M 13.175781 50.914062 " clip-rule="nonzero"/></clipPath><clipPath id="9118021d6c"><path d="M 312 167 L 428 167 L 428 286 L 312 286 Z M 312 167 " clip-rule="nonzero"/></clipPath><clipPath id="7f2c4e2561"><path d="M 385.96875 155.519531 L 444.476562 194.273438 L 362.0625 318.699219 L 303.550781 279.945312 Z M 385.96875 155.519531 " clip-rule="nonzero"/></clipPath><clipPath id="95f66721d3"><path d="M 427.25 183.929688 L 394.1875 167.886719 C 393.691406 167.667969 393.003906 167.746094 392.707031 168.1875 L 339.8125 226.8125 C 339.246094 227.503906 339.445312 228.488281 340.234375 228.90625 L 360.664062 237.960938 C 361.503906 238.304688 361.679688 239.488281 361.039062 240.128906 L 312.480469 282.875 C 311.890625 283.441406 311.894531 284.402344 312.632812 284.894531 C 313.003906 285.140625 313.523438 285.164062 313.941406 285.011719 L 418.5 232.371094 C 419.484375 231.851562 419.453125 230.445312 418.46875 230.003906 L 390 218.289062 C 389.085938 217.894531 388.910156 216.714844 389.671875 216.046875 L 427.503906 186.121094 C 428.214844 185.527344 428.113281 184.394531 427.25 183.929688 Z M 427.25 183.929688 " clip-rule="nonzero"/></clipPath></defs><g clip-path="url(#62adf792f3)"><path fill="#5271ff" d="M 161.015625 100.207031 C 179.402344 69.878906 212.417969 50.953125 248.429688 50.953125 C 296.832031 50.953125 340.867188 84.179688 346.101562 133.484375 C 398.617188 133.484375 441.539062 176.425781 441.539062 229.035156 C 441.539062 281.640625 398.617188 324.636719 346.101562 324.636719 L 99.5625 324.636719 C 51.972656 324.636719 13.113281 285.710938 13.113281 238.039062 C 13.113281 202.878906 34.140625 166.605469 69.742188 157.75 C 72.433594 157.089844 75.125 156.582031 77.773438 156.273438 C 86.203125 122.941406 116.375 99.082031 151.265625 99.082031 C 154.664062 99.089844 157.921875 99.492188 161.015625 100.207031 Z M 161.015625 100.207031 " fill-opacity="1" fill-rule="evenodd"/></g><path fill="#ffffff" d="M 328.117188 156.074219 L 346.09375 156.074219 C 386.167969 156.074219 418.976562 188.890625 418.976562 229.035156 C 418.976562 269.179688 386.167969 302.042969 346.09375 302.042969 L 99.5625 302.042969 C 64.414062 302.042969 35.667969 273.246094 35.667969 238.039062 C 35.667969 188.175781 87.832031 152.761719 125.671875 202.519531 C 122.566406 206.132812 120.691406 210.8125 120.691406 215.953125 C 120.691406 227.300781 129.835938 236.457031 141.160156 236.457031 C 152.4375 236.457031 161.582031 227.300781 161.582031 215.953125 C 161.582031 204.65625 152.4375 195.445312 141.160156 195.445312 C 139.894531 195.445312 138.675781 195.550781 137.503906 195.800781 C 126.433594 180.539062 111.394531 171.578125 98.695312 166.339844 C 102.859375 141.003906 124.804688 121.664062 151.265625 121.664062 C 164.929688 121.664062 175.394531 136.875 181.277344 147.921875 C 176.457031 151.636719 173.351562 157.535156 173.351562 164.101562 C 173.351562 175.449219 182.496094 184.605469 193.824219 184.605469 C 205.097656 184.605469 214.242188 175.449219 214.242188 164.101562 C 214.242188 152.960938 205.304688 143.851562 194.226562 143.644531 C 189.351562 133.878906 182.847656 125.9375 176.199219 119.578125 C 188.949219 92.359375 216.476562 73.527344 248.421875 73.527344 C 276.507812 73.527344 301.195312 88.078125 315.417969 110.058594 L 242.636719 188.3125 L 295.8125 210.546875 L 234.207031 293.023438 L 347.722656 195.6875 L 306.882812 180.066406 Z M 141.160156 206.847656 C 146.191406 206.847656 150.253906 210.914062 150.253906 215.953125 C 150.253906 220.992188 146.191406 225.058594 141.160156 225.058594 C 136.132812 225.058594 132.019531 220.992188 132.019531 215.953125 C 132.019531 210.921875 136.132812 206.847656 141.160156 206.847656 Z M 193.832031 155.003906 C 198.863281 155.003906 202.921875 159.070312 202.921875 164.109375 C 202.921875 169.148438 198.863281 173.269531 193.832031 173.269531 C 188.800781 173.269531 184.691406 169.148438 184.691406 164.109375 C 184.691406 159.070312 188.800781 155.003906 193.832031 155.003906 Z M 193.832031 155.003906 " fill-opacity="1" fill-rule="evenodd"/><g clip-path="url(#9118021d6c)"><g clip-path="url(#7f2c4e2561)"><g clip-path="url(#95f66721d3)"><path fill="#5271ff" d="M 386.21875 156.75 L 443.988281 195.015625 L 362.550781 317.957031 L 304.785156 279.695312 Z M 386.21875 156.75 " fill-opacity="1" fill-rule="nonzero"/></g></g></g><g fill="#001160" fill-opacity="1"><g transform="translate(475.637674, 217.546225)"><g><path d="M 33.449219 0 L 55.792969 0 L 78.425781 -64.476562 L 101.054688 0 L 123.257812 0 L 155.425781 -99.632812 L 131.515625 -99.632812 L 121.976562 -69.316406 L 111.304688 -36.152344 L 99.773438 -69.316406 L 89.101562 -99.632812 L 67.609375 -99.632812 L 56.933594 -69.316406 L 45.546875 -36.578125 L 35.011719 -69.316406 L 25.476562 -99.632812 L 1.421875 -99.632812 Z M 33.449219 0 "/></g></g></g><g fill="#001160" fill-opacity="1"><g transform="translate(632.466728, 217.546225)"><g><path d="M 11.957031 0 L 78.992188 0 L 78.992188 -19.214844 L 34.445312 -19.214844 L 34.445312 -40.992188 L 73.585938 -40.992188 L 73.585938 -59.921875 L 34.445312 -59.921875 L 34.445312 -80.558594 L 77.429688 -80.558594 L 77.429688 -99.632812 L 11.957031 -99.632812 Z M 11.957031 0 "/></g></g></g><g fill="#001160" fill-opacity="1"><g transform="translate(718.708487, 217.546225)"><g><path d="M 1.28125 0 L 25.476562 0 L 32.167969 -17.222656 L 71.734375 -17.222656 L 78.425781 0 L 102.621094 0 L 63.054688 -99.632812 L 40.847656 -99.632812 Z M 38.003906 -35.011719 L 51.949219 -71.449219 L 66.042969 -35.011719 Z M 38.003906 -35.011719 "/></g></g></g><g fill="#001160" fill-opacity="1"><g transform="translate(822.597069, 217.546225)"><g><path d="M 35.867188 0 L 58.5 0 L 58.5 -78.425781 L 90.097656 -78.425781 L 90.097656 -99.632812 L 4.269531 -99.632812 L 4.269531 -78.425781 L 35.867188 -78.425781 Z M 35.867188 0 "/></g></g></g><g fill="#001160" fill-opacity="1"><g transform="translate(916.950662, 217.546225)"><g><path d="M 73.585938 0 L 96.214844 0 L 96.214844 -99.632812 L 73.585938 -99.632812 L 73.585938 -61.34375 L 34.585938 -61.34375 L 34.585938 -99.632812 L 11.957031 -99.632812 L 11.957031 0 L 34.585938 0 L 34.585938 -40.136719 L 73.585938 -40.136719 Z M 73.585938 0 "/></g></g></g><g fill="#001160" fill-opacity="1"><g transform="translate(1025.108613, 217.546225)"><g><path d="M 11.957031 0 L 78.992188 0 L 78.992188 -19.214844 L 34.445312 -19.214844 L 34.445312 -40.992188 L 73.585938 -40.992188 L 73.585938 -59.921875 L 34.445312 -59.921875 L 34.445312 -80.558594 L 77.429688 -80.558594 L 77.429688 -99.632812 L 11.957031 -99.632812 Z M 11.957031 0 "/></g></g></g><g fill="#001160" fill-opacity="1"><g transform="translate(1111.350373, 217.546225)"><g><path d="M 11.957031 0 L 34.585938 0 L 34.585938 -31.027344 L 49.53125 -31.027344 L 67.324219 0 L 93.511719 0 L 72.875 -34.585938 C 84.828125 -39.851562 91.804688 -50.671875 91.804688 -65.332031 C 91.804688 -86.539062 77.285156 -99.632812 54.511719 -99.632812 L 11.957031 -99.632812 Z M 34.300781 -50.101562 L 34.300781 -80.273438 L 51.523438 -80.273438 C 62.625 -80.273438 68.886719 -74.867188 68.886719 -65.1875 C 68.886719 -55.507812 62.625 -50.101562 51.523438 -50.101562 Z M 34.300781 -50.101562 "/></g></g></g><g fill="#001160" fill-opacity="1"><g transform="translate(1211.538794, 217.546225)"><g><path d="M 19.074219 1.566406 C 26.757812 1.566406 32.308594 -3.84375 32.308594 -11.246094 C 32.308594 -18.644531 26.757812 -24.195312 19.074219 -24.195312 C 11.246094 -24.195312 5.835938 -18.644531 5.835938 -11.246094 C 5.835938 -3.84375 11.246094 1.566406 19.074219 1.566406 Z M 19.074219 1.566406 "/></g></g></g><g fill="#001160" fill-opacity="1"><g transform="translate(1249.536402, 217.546225)"><g><path d="M 11.957031 0 L 34.585938 0 L 34.585938 -99.632812 L 11.957031 -99.632812 Z M 11.957031 0 "/></g></g></g><g fill="#001160" fill-opacity="1"><g transform="translate(1296.072795, 217.546225)"><g><path d="M 59.210938 1.992188 C 90.378906 1.992188 112.441406 -19.355469 112.441406 -49.816406 C 112.441406 -80.273438 90.378906 -101.625 59.210938 -101.625 C 28.039062 -101.625 6.121094 -80.273438 6.121094 -49.816406 C 6.121094 -19.355469 28.039062 1.992188 59.210938 1.992188 Z M 29.179688 -49.816406 C 29.179688 -67.75 41.5625 -80.132812 59.210938 -80.132812 C 77 -80.132812 89.242188 -67.75 89.242188 -49.816406 C 89.242188 -31.882812 77 -19.5 59.210938 -19.5 C 41.5625 -19.5 29.179688 -31.882812 29.179688 -49.816406 Z M 29.179688 -49.816406 "/></g></g></g><g fill="#5271ff" fill-opacity="1"><g transform="translate(490.556241, 298.978501)"><g><path d="M 2.78125 -30.9375 L 6.5 -30.9375 L 6.1875 -19 L 3.046875 -19 Z M 10.78125 -30.9375 L 14.5 -30.9375 L 14.1875 -19 L 11.046875 -19 Z M 10.78125 -30.9375 "/></g></g></g><g fill="#5271ff" fill-opacity="1"><g transform="translate(534.3469, 298.978501)"><g><path d="M 10.78125 -27.09375 L 0.171875 -27.09375 L 0.171875 -30.9375 L 25.765625 -30.9375 L 25.765625 -27.09375 L 15.15625 -27.09375 L 15.15625 0 L 10.78125 0 Z M 10.78125 -27.09375 "/></g></g></g><g fill="#5271ff" fill-opacity="1"><g transform="translate(586.79237, 298.978501)"><g><path d="M 31.234375 -30.9375 L 31.234375 0 L 26.828125 0 L 26.828125 -13.78125 L 9.0625 -13.78125 L 9.0625 0 L 4.640625 0 L 4.640625 -30.9375 L 9.0625 -30.9375 L 9.0625 -17.625 L 26.828125 -17.625 L 26.828125 -30.9375 Z M 31.234375 -30.9375 "/></g></g></g><g fill="#5271ff" fill-opacity="1"><g transform="translate(649.173141, 298.978501)"><g><path d="M 27.09375 -3.84375 L 27.09375 0 L 4.640625 0 L 4.640625 -30.9375 L 26.46875 -30.9375 L 26.46875 -27.09375 L 9.0625 -27.09375 L 9.0625 -17.59375 L 24.5625 -17.59375 L 24.5625 -13.828125 L 9.0625 -13.828125 L 9.0625 -3.84375 Z M 27.09375 -3.84375 "/></g></g></g><g fill="#5271ff" fill-opacity="1"><g transform="translate(705.283602, 298.978501)"><g/></g></g><g fill="#5271ff" fill-opacity="1"><g transform="translate(743.687138, 298.978501)"><g><path d="M 48.34375 -30.9375 L 38 0 L 33.359375 0 L 24.921875 -24.703125 L 16.484375 0 L 11.75 0 L 1.40625 -30.9375 L 5.96875 -30.9375 L 14.3125 -5.78125 L 23.015625 -30.9375 L 27.09375 -30.9375 L 35.609375 -5.65625 L 44.140625 -30.9375 Z M 48.34375 -30.9375 "/></g></g></g><g fill="#5271ff" fill-opacity="1"><g transform="translate(819.933225, 298.978501)"><g><path d="M 27.09375 -3.84375 L 27.09375 0 L 4.640625 0 L 4.640625 -30.9375 L 26.46875 -30.9375 L 26.46875 -27.09375 L 9.0625 -27.09375 L 9.0625 -17.59375 L 24.5625 -17.59375 L 24.5625 -13.828125 L 9.0625 -13.828125 L 9.0625 -3.84375 Z M 27.09375 -3.84375 "/></g></g></g><g fill="#5271ff" fill-opacity="1"><g transform="translate(876.043686, 298.978501)"><g><path d="M 24.34375 -7.734375 L 7.90625 -7.734375 L 4.5 0 L -0.046875 0 L 13.96875 -30.9375 L 18.34375 -30.9375 L 32.390625 0 L 27.75 0 Z M 22.796875 -11.265625 L 16.125 -26.421875 L 9.453125 -11.265625 Z M 22.796875 -11.265625 "/></g></g></g><g fill="#5271ff" fill-opacity="1"><g transform="translate(934.891885, 298.978501)"><g><path d="M 10.78125 -27.09375 L 0.171875 -27.09375 L 0.171875 -30.9375 L 25.765625 -30.9375 L 25.765625 -27.09375 L 15.15625 -27.09375 L 15.15625 0 L 10.78125 0 Z M 10.78125 -27.09375 "/></g></g></g><g fill="#5271ff" fill-opacity="1"><g transform="translate(987.337355, 298.978501)"><g><path d="M 31.234375 -30.9375 L 31.234375 0 L 26.828125 0 L 26.828125 -13.78125 L 9.0625 -13.78125 L 9.0625 0 L 4.640625 0 L 4.640625 -30.9375 L 9.0625 -30.9375 L 9.0625 -17.625 L 26.828125 -17.625 L 26.828125 -30.9375 Z M 31.234375 -30.9375 "/></g></g></g><g fill="#5271ff" fill-opacity="1"><g transform="translate(1049.718126, 298.978501)"><g><path d="M 27.09375 -3.84375 L 27.09375 0 L 4.640625 0 L 4.640625 -30.9375 L 26.46875 -30.9375 L 26.46875 -27.09375 L 9.0625 -27.09375 L 9.0625 -17.59375 L 24.5625 -17.59375 L 24.5625 -13.828125 L 9.0625 -13.828125 L 9.0625 -3.84375 Z M 27.09375 -3.84375 "/></g></g></g><g fill="#5271ff" fill-opacity="1"><g transform="translate(1105.828587, 298.978501)"><g><path d="M 25.3125 0 L 18.640625 -9.5 C 17.816406 -9.4375 17.171875 -9.40625 16.703125 -9.40625 L 9.0625 -9.40625 L 9.0625 0 L 4.640625 0 L 4.640625 -30.9375 L 16.703125 -30.9375 C 20.710938 -30.9375 23.863281 -29.976562 26.15625 -28.0625 C 28.457031 -26.144531 29.609375 -23.507812 29.609375 -20.15625 C 29.609375 -17.769531 29.019531 -15.734375 27.84375 -14.046875 C 26.664062 -12.367188 24.984375 -11.148438 22.796875 -10.390625 L 30.140625 0 Z M 16.578125 -13.171875 C 19.367188 -13.171875 21.5 -13.773438 22.96875 -14.984375 C 24.445312 -16.191406 25.1875 -17.914062 25.1875 -20.15625 C 25.1875 -22.382812 24.445312 -24.097656 22.96875 -25.296875 C 21.5 -26.492188 19.367188 -27.09375 16.578125 -27.09375 L 9.0625 -27.09375 L 9.0625 -13.171875 Z M 16.578125 -13.171875 "/></g></g></g><g fill="#5271ff" fill-opacity="1"><g transform="translate(1164.456012, 298.978501)"><g/></g></g><g fill="#5271ff" fill-opacity="1"><g transform="translate(1202.859548, 298.978501)"><g><path d="M 24.34375 -7.734375 L 7.90625 -7.734375 L 4.5 0 L -0.046875 0 L 13.96875 -30.9375 L 18.34375 -30.9375 L 32.390625 0 L 27.75 0 Z M 22.796875 -11.265625 L 16.125 -26.421875 L 9.453125 -11.265625 Z M 22.796875 -11.265625 "/></g></g></g><g fill="#5271ff" fill-opacity="1"><g transform="translate(1261.707748, 298.978501)"><g><path d="M 16.703125 -30.9375 C 20.710938 -30.9375 23.863281 -29.976562 26.15625 -28.0625 C 28.457031 -26.144531 29.609375 -23.507812 29.609375 -20.15625 C 29.609375 -16.789062 28.457031 -14.148438 26.15625 -12.234375 C 23.863281 -10.328125 20.710938 -9.375 16.703125 -9.375 L 9.0625 -9.375 L 9.0625 0 L 4.640625 0 L 4.640625 -30.9375 Z M 16.578125 -13.21875 C 19.367188 -13.21875 21.5 -13.8125 22.96875 -15 C 24.445312 -16.195312 25.1875 -17.914062 25.1875 -20.15625 C 25.1875 -22.382812 24.445312 -24.097656 22.96875 -25.296875 C 21.5 -26.492188 19.367188 -27.09375 16.578125 -27.09375 L 9.0625 -27.09375 L 9.0625 -13.21875 Z M 16.578125 -13.21875 "/></g></g></g><g fill="#5271ff" fill-opacity="1"><g transform="translate(1320.114398, 298.978501)"><g><path d="M 16.703125 -30.9375 C 20.710938 -30.9375 23.863281 -29.976562 26.15625 -28.0625 C 28.457031 -26.144531 29.609375 -23.507812 29.609375 -20.15625 C 29.609375 -16.789062 28.457031 -14.148438 26.15625 -12.234375 C 23.863281 -10.328125 20.710938 -9.375 16.703125 -9.375 L 9.0625 -9.375 L 9.0625 0 L 4.640625 0 L 4.640625 -30.9375 Z M 16.578125 -13.21875 C 19.367188 -13.21875 21.5 -13.8125 22.96875 -15 C 24.445312 -16.195312 25.1875 -17.914062 25.1875 -20.15625 C 25.1875 -22.382812 24.445312 -24.097656 22.96875 -25.296875 C 21.5 -26.492188 19.367188 -27.09375 16.578125 -27.09375 L 9.0625 -27.09375 L 9.0625 -13.21875 Z M 16.578125 -13.21875 "/></g></g></g><g fill="#5271ff" fill-opacity="1"><g transform="translate(1378.521049, 298.978501)"><g><path d="M 2.78125 -30.9375 L 6.5 -30.9375 L 6.1875 -19 L 3.046875 -19 Z M 10.78125 -30.9375 L 14.5 -30.9375 L 14.1875 -19 L 11.046875 -19 Z M 10.78125 -30.9375 "/></g></g></g></svg>